<?xml version="1.0" encoding="UTF-8"?>
<svg version="1.1" xmlns="http://www.w3.org/2000/svg" width="64" height="64">
<path d="M0 0 C1.78664063 -0.13148438 1.78664063 -0.13148438 3.609375 -0.265625 C10.62124505 -0.44974413 15.01453371 0.5680651 20.4609375 5.1328125 C25.5897111 10.45887687 26.26500903 15.86796444 26.21914673 23.04821777 C26.13969974 25.4933201 26.00831695 27.93230492 25.875 30.375 C25.82830107 32.05064857 25.78659598 33.7264441 25.75 35.40234375 C25.422571 47.452429 25.422571 47.452429 24.125 48.75 C21.39775721 48.85099488 18.69637477 48.88970529 15.96875 48.8828125 C14.74254944 48.88424759 14.74254944 48.88424759 13.49157715 48.88571167 C11.75984622 48.88639345 10.02811276 48.88453929 8.29638672 48.88037109 C5.63633518 48.87502279 2.9764525 48.88031612 0.31640625 48.88671875 C-1.36197954 48.88605797 -3.04036523 48.8847768 -4.71875 48.8828125 C-5.51978149 48.88483673 -6.32081299 48.88686096 -7.14611816 48.88894653 C-12.76004921 48.86495079 -12.76004921 48.86495079 -13.875 47.75 C-13.97313987 46.31259647 -14.0029828 44.87043673 -14.00439453 43.4296875 C-14.00754669 42.51203613 -14.01069885 41.59438477 -14.01394653 40.64892578 C-14.0119223 39.65103027 -14.00989807 38.65313477 -14.0078125 37.625 C-14.00876923 36.60776855 -14.00972595 35.59053711 -14.01071167 34.54248047 C-14.01139361 32.38704364 -14.00953835 30.23160478 -14.00537109 28.07617188 C-14.00002305 24.76427629 -14.00531563 21.45251633 -14.01171875 18.140625 C-14.01105797 16.05208303 -14.00977681 13.96354115 -14.0078125 11.875 C-14.00983673 10.87710449 -14.01186096 9.87920898 -14.01394653 8.85107422 C-14.01079437 7.93342285 -14.00764221 7.01577148 -14.00439453 6.0703125 C-14.00359894 5.25836426 -14.00280334 4.44641602 -14.00198364 3.60986328 C-13.64200743 -1.66252078 -3.92775542 0.13174861 0 0 Z " fill="#34CDEB" transform="translate(26.875,6.25)"/>
<path d="M0 0 C0.02886537 4.31248609 0.04675255 8.62494762 0.0625 12.9375 C0.07087891 14.16919922 0.07925781 15.40089844 0.08789062 16.66992188 C0.09272461 18.4246582 0.09272461 18.4246582 0.09765625 20.21484375 C0.10551147 21.84087524 0.10551147 21.84087524 0.11352539 23.49975586 C0 26 0 26 -1 27 C-2.41570123 27.08651611 -3.835595 27.10704904 -5.25390625 27.09765625 C-6.10791016 27.09443359 -6.96191406 27.09121094 -7.84179688 27.08789062 C-9.18854492 27.07532227 -9.18854492 27.07532227 -10.5625 27.0625 C-11.46419922 27.05798828 -12.36589844 27.05347656 -13.29492188 27.04882812 C-15.53001314 27.03700225 -17.76497437 27.0205222 -20 27 C-19.67 25.68 -19.34 24.36 -19 23 C-20.98 22.34 -22.96 21.68 -25 21 C-24.505 19.515 -24.505 19.515 -24 18 C-21.37438891 17.91925797 -18.75124324 17.8596377 -16.125 17.8125 C-15.00544922 17.77479492 -15.00544922 17.77479492 -13.86328125 17.73632812 C-11.6953125 17.70703125 -11.6953125 17.70703125 -8 18 C-7.34 18.99 -6.68 19.98 -6 21 C-5.96261719 19.73542969 -5.92523438 18.47085938 -5.88671875 17.16796875 C-5.82106167 15.5077827 -5.75461424 13.84762778 -5.6875 12.1875 C-5.66494141 11.35412109 -5.64238281 10.52074219 -5.61914062 9.66210938 C-5.58369141 8.85966797 -5.54824219 8.05722656 -5.51171875 7.23046875 C-5.47244263 6.12288208 -5.47244263 6.12288208 -5.43237305 4.99291992 C-4.75754864 1.88247857 -3.27259395 0 0 0 Z " fill="#2FB1CB" transform="translate(52,28)"/>
<path d="M0 0 C1.30710937 -0.00257812 2.61421875 -0.00515625 3.9609375 -0.0078125 C4.63479492 -0.00362305 5.30865234 0.00056641 6.00292969 0.00488281 C8.05694103 0.01559601 10.11007796 0.00495737 12.1640625 -0.0078125 C13.47117187 -0.00523438 14.77828125 -0.00265625 16.125 0 C17.31222656 0.00225586 18.49945313 0.00451172 19.72265625 0.00683594 C23.13614755 0.27133161 25.87632082 1.04474127 29.0625 2.265625 C29.0625 2.925625 29.0625 3.585625 29.0625 4.265625 C24.60192112 5.97483464 20.89205136 6.52219208 16.125 6.53125 C14.81789063 6.53382812 13.51078125 6.53640625 12.1640625 6.5390625 C11.49020508 6.53487305 10.81634766 6.53068359 10.12207031 6.52636719 C8.06805897 6.51565399 6.01492204 6.52629263 3.9609375 6.5390625 C2.65382813 6.53648438 1.34671875 6.53390625 0 6.53125 C-1.18722656 6.52899414 -2.37445313 6.52673828 -3.59765625 6.52441406 C-7.01114755 6.25991839 -9.75132082 5.48650873 -12.9375 4.265625 C-12.9375 3.605625 -12.9375 2.945625 -12.9375 2.265625 C-8.47692112 0.55641536 -4.76705136 0.00905792 0 0 Z " fill="#000000" transform="translate(23.9375,57.734375)"/>
<path d="M0 0 C0.9583374 0.00523682 1.9166748 0.01047363 2.90405273 0.01586914 C4.45576172 0.02070313 4.45576172 0.02070313 6.03881836 0.02563477 C7.12743164 0.03401367 8.21604492 0.04239258 9.33764648 0.05102539 C10.97636719 0.05779297 10.97636719 0.05779297 12.64819336 0.06469727 C15.35723144 0.07652713 18.06616248 0.09300996 20.77514648 0.11352539 C21.33764648 2.05102539 21.33764648 2.05102539 21.77514648 4.11352539 C20.77514648 5.11352539 20.77514648 5.11352539 18.55029297 5.22705078 C17.59195557 5.22181396 16.63361816 5.21657715 15.64624023 5.21118164 C14.09453125 5.20634766 14.09453125 5.20634766 12.51147461 5.20141602 C11.42286133 5.19303711 10.33424805 5.1846582 9.21264648 5.17602539 C7.57392578 5.16925781 7.57392578 5.16925781 5.90209961 5.16235352 C3.19306153 5.15052366 0.48413049 5.13404082 -2.22485352 5.11352539 C-2.78735352 3.17602539 -2.78735352 3.17602539 -3.22485352 1.11352539 C-2.22485352 0.11352539 -2.22485352 0.11352539 0 0 Z " fill="#008AA9" transform="translate(23.224853515625,22.886474609375)"/>
<path d="M0 0 C2.05078125 0.03255208 4.1015625 0.06510417 6.15234375 0.09765625 C5.77734375 2.03515625 5.77734375 2.03515625 5.15234375 4.09765625 C4.16234375 4.59265625 4.16234375 4.59265625 3.15234375 5.09765625 C2.79262806 8.65838629 2.70757996 12.20087982 2.59375 15.77734375 C2.15234375 19.09765625 2.15234375 19.09765625 0.7421875 21.04296875 C-0.84765625 22.09765625 -0.84765625 22.09765625 -2.84765625 22.09765625 C-2.87653439 18.61850684 -2.89441312 15.13938794 -2.91015625 11.66015625 C-2.91853516 10.66693359 -2.92691406 9.67371094 -2.93554688 8.65039062 C-2.93876953 7.70615234 -2.94199219 6.76191406 -2.9453125 5.7890625 C-2.95054932 4.91451416 -2.95578613 4.03996582 -2.96118164 3.13891602 C-2.8145865 0.50304074 -2.64429521 0.1397619 0 0 Z " fill="#71DDF2" transform="translate(15.84765625,6.90234375)"/>
<path d="M0 0 C4.52615993 3.67832017 8.39424999 7.41086363 12 12 C10.37536158 12.05395478 8.75021459 12.09277195 7.125 12.125 C6.22007813 12.14820313 5.31515625 12.17140625 4.3828125 12.1953125 C2 12 2 12 0 10 C-0.1953125 7.6171875 -0.1953125 7.6171875 -0.125 4.875 C-0.10695312 3.96492187 -0.08890625 3.05484375 -0.0703125 2.1171875 C-0.04710937 1.41851562 -0.02390625 0.71984375 0 0 Z " fill="#038EAD" transform="translate(40,7)"/>
<path d="M0 0 C5.28 0 10.56 0 16 0 C16 1.32 16 2.64 16 4 C10.72 4 5.44 4 0 4 C0 2.68 0 1.36 0 0 Z " fill="#008AA9" transform="translate(28,46)"/>
<path d="M0 0 C5.28 0 10.56 0 16 0 C16 1.32 16 2.64 16 4 C10.72 4 5.44 4 0 4 C0 2.68 0 1.36 0 0 Z " fill="#008AA9" transform="translate(28,39)"/>
<path d="M0 0 C5.28 0 10.56 0 16 0 C16 1.32 16 2.64 16 4 C10.72 4 5.44 4 0 4 C0 2.68 0 1.36 0 0 Z " fill="#008AA9" transform="translate(28,32)"/>
<path d="M0 0 C0.99 0 1.98 0 3 0 C3 3.3 3 6.6 3 10 C2.01 10 1.02 10 0 10 C0 6.7 0 3.4 0 0 Z " fill="#F5FCFE" transform="translate(15,11)"/>
</svg>
